<?xml version="1.0" standalone="no"?>
<!DOCTYPE svg PUBLIC "-//W3C//DTD SVG 20010904//EN"
 "http://www.w3.org/TR/2001/REC-SVG-20010904/DTD/svg10.dtd">
<svg version="1.0" xmlns="http://www.w3.org/2000/svg"
 width="512.000000pt" height="512.000000pt" viewBox="0 0 512.000000 512.000000"
 preserveAspectRatio="xMidYMid meet">

<g transform="translate(0.000000,512.000000) scale(0.100000,-0.100000)"
fill="#000000" stroke="none">
<path d="M2390 3825 c-194 -28 -399 -108 -557 -217 -99 -67 -244 -211 -312
-308 -67 -95 -133 -226 -171 -337 l-29 -86 -81 -24 c-172 -49 -400 -143 -634
-260 -213 -106 -526 -282 -558 -313 -57 -57 -61 -153 -9 -213 68 -77 580 -313
876 -404 71 -22 88 -32 150 -92 436 -418 1074 -655 1640 -611 488 39 994 263
1345 596 81 78 89 83 175 109 262 79 770 312 852 391 43 40 43 41 43 112 0 64
-3 75 -27 102 -29 31 -174 117 -411 243 -265 142 -497 244 -722 318 l-156 51
-23 71 c-128 396 -457 716 -854 831 -173 50 -373 65 -537 41z m400 -336 c103
-24 263 -99 346 -162 126 -96 234 -230 299 -370 59 -128 63 -120 -57 -145
-302 -63 -461 -82 -739 -89 -248 -6 -381 2 -616 37 -132 20 -362 66 -370 74
-8 8 17 76 57 156 142 283 412 475 732 520 90 13 249 3 348 -21z m-1235 -964
c179 -42 375 -78 545 -102 159 -22 697 -25 860 -5 167 21 431 68 614 108 l168
37 77 -22 c135 -39 351 -130 579 -243 122 -61 225 -115 228 -120 10 -15 -277
-135 -496 -206 -511 -167 -1092 -235 -1810 -211 -697 23 -1226 138 -1755 379
l-69 32 39 24 c62 38 369 188 480 235 123 52 343 128 370 129 12 0 88 -16 170
-35z m385 -1065 c345 -33 944 -31 1282 5 78 8 143 13 145 11 7 -6 -154 -75
-258 -110 -284 -94 -592 -114 -876 -57 -122 25 -312 88 -407 136 -67 33 -69
35 -31 30 22 -3 87 -9 145 -15z"/>
<path d="M1560 2388 c-107 -30 -152 -167 -83 -249 75 -89 211 -78 265 21 25
45 20 129 -9 168 -40 53 -111 78 -173 60z"/>
<path d="M3477 2386 c-72 -26 -107 -76 -107 -153 0 -91 63 -153 155 -153 135
0 207 148 124 254 -41 52 -112 73 -172 52z"/>
<path d="M2515 2225 c-170 -59 -130 -305 50 -305 93 0 155 62 155 156 0 109
-103 184 -205 149z"/>
</g>
</svg>
